HIERARCHY
ROOT Hips
{
  OFFSET 47.7306 102.742 -13.1373
  CHANNELS 6 Xposition Yposition Zposition Zrotation Xrotation Yrotation
  JOINT Chest
  {
    OFFSET 1.23234e-007 14.8421 1.27322e-009
    CHANNELS 6 Xposition Yposition Zposition Zrotation Xrotation Yrotation
    JOINT Neck
    {
      OFFSET 0.51659 29.8236 6.51843
      CHANNELS 6 Xposition Yposition Zposition Zrotation Xrotation Yrotation
      JOINT Head
      {
        OFFSET 1.16803e-007 7.47049 6.44171e-007
        CHANNELS 6 Xposition Yposition Zposition Zrotation Xrotation Yrotation
        End Site
        {
          OFFSET -4.32676e-008 16.2908 2.16786e-007
        }
      }
    }
    JOINT LeftCollar
    {
      OFFSET 6.64893 27.3161 3.27471
      CHANNELS 6 Xposition Yposition Zposition Zrotation Xrotation Yrotation
      JOINT LeftUpArm
      {
        OFFSET 10.8584 2.41798 -0.945791
        CHANNELS 6 Xposition Yposition Zposition Zrotation Xrotation Yrotation
        JOINT LeftLowArm
        {
          OFFSET 3.77631 -24.5904 -1.70468
          CHANNELS 6 Xposition Yposition Zposition Zrotation Xrotation Yrotation
          JOINT LeftHand
          {
            OFFSET 1.01026 -21.1231 1.74131
            CHANNELS 6 Xposition Yposition Zposition Zrotation Xrotation Yrotation
            End Site
            {
              OFFSET 1.17583e-006 -9.81266 -2.89439e-008
            }
          }
        }
      }
    }
    JOINT RightCollar
    {
      OFFSET -6.11406 27.2248 4.23427
      CHANNELS 6 Xposition Yposition Zposition Zrotation Xrotation Yrotation
      JOINT RightUpArm
      {
        OFFSET -10.4566 2.3285 -0.910794
        CHANNELS 6 Xposition Yposition Zposition Zrotation Xrotation Yrotation
        JOINT RightLowArm
        {
          OFFSET -3.86856 -25.191 -1.74633
          CHANNELS 6 Xposition Yposition Zposition Zrotation Xrotation Yrotation
          JOINT RightHand
          {
            OFFSET -1.04759 -20.6242 1.75213
            CHANNELS 6 Xposition Yposition Zposition Zrotation Xrotation Yrotation
            End Site
            {
              OFFSET -2.03487e-006 -9.50367 -4.31372e-006
            }
          }
        }
      }
    }
  }
  JOINT LeftUpLeg
  {
    OFFSET 9 -3.38008e-006 -5.22998e-009
    CHANNELS 6 Xposition Yposition Zposition Zrotation Xrotation Yrotation
    JOINT LeftLowLeg
    {
      OFFSET -0.575 -51.431 3.90177
      CHANNELS 6 Xposition Yposition Zposition Zrotation Xrotation Yrotation
      JOINT LeftFoot
      {
        OFFSET 2.13082e-007 -43.5882 -3.90177
        CHANNELS 6 Xposition Yposition Zposition Zrotation Xrotation Yrotation
        End Site
        {
          OFFSET 7.44796e-007 -6.93413 15.0046
        }
      }
    }
  }
  JOINT RightUpLeg
  {
    OFFSET -9 6.86154e-007 -3.19539e-009
    CHANNELS 6 Xposition Yposition Zposition Zrotation Xrotation Yrotation
    JOINT RightLowLeg
    {
      OFFSET 0.575 -51.4311 3.90177
      CHANNELS 6 Xposition Yposition Zposition Zrotation Xrotation Yrotation
      JOINT RightFoot
      {
        OFFSET -7.46079e-007 -43.5882 -3.90177
        CHANNELS 6 Xposition Yposition Zposition Zrotation Xrotation Yrotation
        End Site
        {
          OFFSET 4.66716e-007 -6.93413 15.0046
        }
      }
    }
  }
}
MOTION
Frames:	8
Frame Time:	0.0333333
47.7306 102.742 -13.1373 0.269391 -0.00231312 -0.289642 1.23234e-007 14.8421 1.27322e-009 -0.0484245 -13.8507 0.0862324 0.51659 29.8236 6.51843 -3.12264 18.9122 0.816791 1.16803e-007 7.47049 6.44171e-007 -0.117382 0.361249 0.0562966 6.64893 27.3161 3.27471 -2.94784 5.93879 -4.20517 10.8584 2.41798 -0.945791 94.9138 7.97179 36.2749 3.77631 -24.5904 -1.70468 16.8398 -10.3665 -34.4006 1.01026 -21.1231 1.74131 -0.223289 6.25839 0.0266846 -6.11406 27.2248 4.23427 -1.96452 7.32629 3.42623 -10.4566 2.3285 -0.910794 -87.6622 -0.0253323 -34.2363 -3.86856 -25.191 -1.74633 -19.6975 -4.16577 55.967 -1.04759 -20.6242 1.75213 1.39208 4.65711 -0.0259906 9 -3.38008e-006 -5.22998e-009 3.03697 0.748354 7.53103 -0.575 -51.431 3.90177 -1.93347 2.61267 -5.67141 2.13082e-007 -43.5882 -3.90177 -0.979784 0.0419159 0.0977405 -9 6.86154e-007 -3.19539e-009 -4.22312 0.64292 -11.4228 0.575 -51.4311 3.90177 0.037565 2.62491 -4.18107 -7.46079e-007 -43.5882 -3.90177 -1.84583 -0.891567 0.163901 
47.7259 102.732 -13.085 0.137495 -0.116975 -0.284212 1.23234e-007 14.8421 1.27322e-009 0.0859179 -13.7253 0.0871401 0.51659 29.8236 6.51843 -2.91424 18.5928 0.675588 1.16803e-007 7.47049 6.44171e-007 -0.271698 0.676813 0.047127 6.64893 27.3161 3.27471 -2.94784 5.93879 -4.20517 10.8584 2.41798 -0.945791 94.9667 7.92273 36.6475 3.77631 -24.5904 -1.70468 16.9379 -10.4699 -34.6769 1.01026 -21.1231 1.74131 -0.299886 6.25981 0.0213972 -6.11406 27.2248 4.23427 -1.96452 7.32629 3.42623 -10.4566 2.3285 -0.910794 -87.726 -0.118448 -35.0288 -3.86856 -25.191 -1.74633 -19.936 -4.33376 57.0654 -1.04759 -20.6242 1.75213 1.68835 4.45787 0.0172013 9 -3.38008e-006 -5.22998e-009 3.20011 0.824621 7.62074 -0.575 -51.431 3.90177 -1.92535 2.76217 -5.70715 2.13082e-007 -43.5882 -3.90177 -1.06064 0.143474 0.107208 -9 6.86154e-007 -3.19539e-009 -4.07967 0.767672 -11.3599 0.575 -51.4311 3.90177 0.0467939 2.6286 -4.30631 -7.46079e-007 -43.5882 -3.90177 -1.80912 -0.785986 0.161003 
47.7575 102.72 -12.9776 -0.0508022 -0.456752 -0.229468 1.23234e-007 14.8421 1.27322e-009 0.372584 -13.4552 -0.00192533 0.51659 29.8236 6.51843 -3.03346 18.7271 0.728079 1.16803e-007 7.47049 6.44171e-007 -0.124055 0.52449 0.0139538 6.64893 27.3161 3.27471 -2.94784 5.93879 -4.20517 10.8584 2.41798 -0.945791 94.9587 8.01834 36.126 3.77631 -24.5904 -1.70468 16.7517 -10.2688 -34.1655 1.01026 -21.1231 1.74131 0.0389363 6.12755 0.0369705 -6.11406 27.2248 4.23427 -1.96452 7.32629 3.42623 -10.4566 2.3285 -0.910794 -88.2243 -0.715061 -38.1273 -3.86856 -25.191 -1.74633 -20.7149 -4.72502 62.3025 -1.04759 -20.6242 1.75213 2.86581 3.47622 0.202443 9 -3.38008e-006 -5.22998e-009 3.34595 1.11806 7.67767 -0.575 -51.431 3.90177 -1.84664 3.01354 -5.79457 2.13082e-007 -43.5882 -3.90177 -0.992704 -0.141063 0.09648 -9 6.86154e-007 -3.19539e-009 -3.90383 1.30326 -11.2987 0.575 -51.4311 3.90177 0.0934638 2.39 -4.3627 -7.46079e-007 -43.5882 -3.90177 -1.79535 -0.62455 0.160039 
47.7382 102.73 -12.9458 -0.106169 -0.5103 -0.328092 1.23234e-007 14.8421 1.27322e-009 0.441424 -13.498 0.0633011 0.51659 29.8236 6.51843 -3.17442 19.2991 0.836413 1.16803e-007 7.47049 6.44171e-007 0.140989 -0.0245994 0.00102271 6.64893 27.3161 3.27471 -2.94784 5.93879 -4.20517 10.8584 2.41798 -0.945791 95.0337 7.9983 36.1041 3.77631 -24.5904 -1.70468 16.7729 -10.2907 -34.277 1.01026 -21.1231 1.74131 -0.168691 6.00061 0.0138437 -6.11406 27.2248 4.23427 -1.96452 7.32629 3.42623 -10.4566 2.3285 -0.910794 -88.251 -0.744393 -38.0206 -3.86856 -25.191 -1.74633 -20.6982 -4.73812 62.0807 -1.04759 -20.6242 1.75213 2.70892 3.5509 0.18224 9 -3.38008e-006 -5.22998e-009 3.43804 1.2404 7.7918 -0.575 -51.431 3.90177 -1.93835 2.95571 -5.96496 2.13082e-007 -43.5882 -3.90177 -0.861332 -0.333139 0.081077 -9 6.86154e-007 -3.19539e-009 -3.81602 1.57703 -11.2356 0.575 -51.4311 3.90177 0.116582 1.91741 -4.25424 -7.46079e-007 -43.5882 -3.90177 -1.86697 -0.564158 0.166129 
47.7335 102.75 -12.92 -0.0968362 -0.551311 -0.392068 1.23234e-007 14.8421 1.27322e-009 0.466062 -13.469 0.113249 0.51659 29.8236 6.51843 -3.29644 19.3772 0.89717 1.16803e-007 7.47049 6.44171e-007 0.356781 -0.0960127 -0.0361894 6.64893 27.3161 3.27471 -2.94784 5.93879 -4.20517 10.8584 2.41798 -0.945791 95.0452 7.98856 36.1894 3.77631 -24.5904 -1.70468 16.7996 -10.3026 -34.4929 1.01026 -21.1231 1.74131 -0.272682 6.00115 0.0062419 -6.11406 27.2248 4.23427 -1.96452 7.32629 3.42623 -10.4566 2.3285 -0.910794 -88.324 -0.706219 -37.8031 -3.86856 -25.191 -1.74633 -20.6545 -4.70268 61.651 -1.04759 -20.6242 1.75213 2.73032 3.42675 0.195407 9 -3.38008e-006 -5.22999e-009 3.41111 1.25654 7.755 -0.575 -51.431 3.90177 -1.89847 3.04342 -5.94784 2.13082e-007 -43.5882 -3.90177 -0.920727 -0.294258 0.0873431 -9 6.86154e-007 -3.1954e-009 -3.83493 1.53743 -11.2512 0.575 -51.4311 3.90177 0.0997191 2.07411 -4.41334 -7.46079e-007 -43.5882 -3.90177 -1.8414 -0.695011 0.163803 
47.7898 102.735 -12.9574 -0.0966311 -0.466299 -0.316188 1.23234e-007 14.8421 1.27321e-009 0.498476 -13.5171 0.0182761 0.51659 29.8236 6.51843 -3.3287 19.2817 0.92292 1.16803e-007 7.47049 6.44171e-007 0.477151 -0.0529213 -0.0462688 6.64893 27.3161 3.27471 -2.94784 5.93879 -4.20517 10.8584 2.41798 -0.945791 94.9373 7.98977 36.212 3.77631 -24.5904 -1.70468 16.8017 -10.3212 -34.3273 1.01026 -21.1231 1.74131 -0.157191 6.00059 0.0146814 -6.11406 27.2248 4.23427 -1.96452 7.32629 3.42623 -10.4566 2.3285 -0.910794 -88.467 -0.734238 -37.8505 -3.86856 -25.191 -1.74633 -20.6618 -4.71395 61.7303 -1.04759 -20.6242 1.75213 2.7824 3.42312 0.200585 9 -3.38008e-006 -5.22999e-009 3.35634 1.11457 7.6511 -0.575 -51.431 3.90177 -1.79971 3.08537 -5.86465 2.13082e-007 -43.5882 -3.90177 -0.948885 -0.228527 0.0909484 -9 6.86154e-007 -3.1954e-009 -3.90566 1.35638 -11.3418 0.575 -51.4311 3.90177 0.169869 2.26513 -4.4581 -7.46079e-007 -43.5882 -3.90177 -1.81435 -0.640163 0.161608 
47.8619 102.729 -12.9838 -0.0616075 -0.424697 -0.241824 1.23234e-007 14.8421 1.27321e-009 0.526112 -13.5244 -0.0787121 0.51659 29.8236 6.51843 -3.11873 19.0936 0.80543 1.16803e-007 7.47049 6.44171e-007 0.335909 0.162837 -0.0354308 6.64893 27.3161 3.27471 -2.94784 5.93879 -4.20517 10.8584 2.41798 -0.945791 94.7133 7.99259 36.2855 3.77631 -24.5904 -1.70468 16.8083 -10.3648 -33.9553 1.01026 -21.1231 1.74131 -0.0312844 5.94587 0.020389 -6.11406 27.2248 4.23427 -1.96452 7.32629 3.42623 -10.4566 2.3285 -0.910794 -88.5971 -0.745012 -37.7806 -3.86856 -25.191 -1.74633 -20.6521 -4.69764 61.6399 -1.04759 -20.6242 1.75213 2.60186 3.49063 0.177759 9 -3.38008e-006 -5.23e-009 3.25989 1.10254 7.58462 -0.575 -51.431 3.90177 -1.76812 2.98633 -5.80233 2.13082e-007 -43.5882 -3.90177 -0.959596 -0.195983 0.0924511 -9 6.86154e-007 -3.1954e-009 -4.00796 1.33289 -11.4268 0.575 -51.4311 3.90177 0.250287 2.22582 -4.05927 -7.46079e-007 -43.5882 -3.90177 -1.82322 -0.299458 0.162738 
47.8573 102.748 -12.975 -0.0716894 -0.471218 -0.286598 1.23234e-007 14.8421 1.27321e-009 0.583149 -13.4939 -0.0461143 0.51659 29.8236 6.51843 -3.24265 19.3945 0.86767 1.16803e-007 7.47049 6.44171e-007 0.447398 -0.00700753 -0.0559562 6.64893 27.3161 3.27471 -2.94784 5.93879 -4.20517 10.8584 2.41798 -0.945791 94.6392 7.94435 36.3516 3.77631 -24.5904 -1.70468 16.8132 -10.3441 -34.2355 1.01026 -21.1231 1.74131 0.0235663 6.00802 0.0284048 -6.11406 27.2248 4.23427 -1.96452 7.32629 3.42623 -10.4566 2.3285 -0.910794 -88.6591 -0.749514 -37.6062 -3.86856 -25.191 -1.74633 -20.5982 -4.67884 61.5697 -1.04759 -20.6242 1.75213 2.6281 3.59584 0.170808 9 -3.38008e-006 -5.23e-009 3.28142 1.08231 7.60983 -0.575 -51.431 3.90177 -1.78213 3.13318 -5.82499 2.13082e-007 -43.5882 -3.90177 -1.02135 -0.174086 0.098802 -9 6.86154e-007 -3.19541e-009 -3.98361 1.42515 -11.4143 0.575 -51.4311 3.90177 0.242507 2.12159 -4.34032 -7.46079e-007 -43.5882 -3.90177 -1.83235 -0.497725 0.163299 
